# xmcd CD database file
#
# Track frame offsets:
#	150
#	15362
#	24817
#	48047
#	59880
#	79060
#	97051
#	107246
#	119882
#	136212
#	153695
#	165276
#	187771
#	203448
#
# Disc length: 2933 seconds
#
# Revision: 0
# Processed by: cddbd v1.5.2PL0 Copyright (c) Steve Scherf et al.
# Submitted via: CDex 1.51
#
DISCID=ad0b730e
DTITLE=Sue Maatsuki - A New Take
DYEAR=2001
DGENRE=Jazz
TTITLE0=Speaking of Happiness
TTITLE1=Bluesette
TTITLE2=I'm Gonna Miss You
TTITLE3=You Brought a New Kind of Love
TTITLE4=Quiet Nights of Quiet Stars/Astrid
TTITLE5=I'll Close My Eyes
TTITLE6=It's Nice Weather for Ducks
TTITLE7=I Whistle a Happy Tune/Whistling in the Dark
TTITLE8=Mondance
TTITLE9=Runnaway/Love is Blind
TTITLE10=Have you Got Any Castles, Baby?
TTITLE11=The Shadow of Your Smile/The Shining Sea
TTITLE12=Shaking the Blues Away
TTITLE13=Anticipation
EXTD=YEAR: 2001
EXTT0=
EXTT1=
EXTT2=
EXTT3=
EXTT4=
EXTT5=
EXTT6=
EXTT7=
EXTT8=
EXTT9=
EXTT10=
EXTT11=
EXTT12=
EXTT13=
PLAYORDER=
